<svg width="24" height="25" viewBox="0 0 24 25" fill="none" xmlns="http://www.w3.org/2000/svg">
<path d="M12.0001 0.5C8.36082 0.5 5.40006 3.3388 5.40006 6.82812C5.40006 10.3175 8.36082 13.1562 12.0001 13.1562C15.6393 13.1562 18.6001 10.3175 18.6001 6.82812C18.6001 3.3388 15.6393 0.5 12.0001 0.5ZM12.0001 11.75C9.16954 11.75 6.86673 9.54205 6.86673 6.82812C6.86673 4.1142 9.16954 1.90625 12.0001 1.90625C14.8306 1.90625 17.1334 4.1142 17.1334 6.82812C17.1334 9.54205 14.8306 11.75 12.0001 11.75Z" fill="#53C096"/>
<path d="M20.2117 17.2904C18.4048 15.5313 16.0094 14.5625 13.4667 14.5625H10.5334C7.99078 14.5625 5.59532 15.5313 3.78839 17.2904C1.99031 19.0409 1.00006 21.3515 1.00006 23.7969C1.00006 24.1852 1.3284 24.5 1.73339 24.5H22.2667C22.6717 24.5 23.0001 24.1852 23.0001 23.7969C23.0001 21.3515 22.0098 19.0409 20.2117 17.2904ZM2.49899 23.0938C2.86639 19.1053 6.32949 15.9688 10.5334 15.9688H13.4667C17.6706 15.9688 21.1337 19.1053 21.5011 23.0938H2.49899Z" fill="#53C096"/>
<path d="M12.0001 0.5C8.36082 0.5 5.40006 3.3388 5.40006 6.82812C5.40006 10.3175 8.36082 13.1562 12.0001 13.1562C15.6393 13.1562 18.6001 10.3175 18.6001 6.82812C18.6001 3.3388 15.6393 0.5 12.0001 0.5ZM12.0001 11.75C9.16954 11.75 6.86673 9.54205 6.86673 6.82812C6.86673 4.1142 9.16954 1.90625 12.0001 1.90625C14.8306 1.90625 17.1334 4.1142 17.1334 6.82812C17.1334 9.54205 14.8306 11.75 12.0001 11.75Z" stroke="#B6BDFF"/>
<path d="M20.2117 17.2904C18.4048 15.5313 16.0094 14.5625 13.4667 14.5625H10.5334C7.99078 14.5625 5.59532 15.5313 3.78839 17.2904C1.99031 19.0409 1.00006 21.3515 1.00006 23.7969C1.00006 24.1852 1.3284 24.5 1.73339 24.5H22.2667C22.6717 24.5 23.0001 24.1852 23.0001 23.7969C23.0001 21.3515 22.0098 19.0409 20.2117 17.2904ZM2.49899 23.0938C2.86639 19.1053 6.32949 15.9688 10.5334 15.9688H13.4667C17.6706 15.9688 21.1337 19.1053 21.5011 23.0938H2.49899Z" stroke="#B6BDFF"/>
</svg>
