<svg width="78" height="78" viewBox="0 0 78 78" fill="none" xmlns="http://www.w3.org/2000/svg">
<path d="M23.0988 9.59949H22.1098C18.3634 9.59949 15.2988 12.6649 15.2988 16.4104V64.4077C15.2988 68.1541 18.3642 71.2187 22.1098 71.2187H56.0671C59.8134 71.2187 62.8781 68.1533 62.8781 64.4077V25.3921C56.7371 19.2504 53.2279 15.742 47.0862 9.59949H32.4588" fill="#EAECFF"/>
<path d="M56.068 71.9995H22.1107C17.9245 71.9995 14.5198 68.594 14.5198 64.4085V16.4112C14.5198 12.2249 17.9253 8.82024 22.1107 8.82024H23.0998C23.5303 8.82024 23.8798 9.16968 23.8798 9.60024C23.8798 10.0308 23.5303 10.3802 23.0998 10.3802H22.1107C18.7848 10.3802 16.0798 13.0861 16.0798 16.4112V64.4085C16.0798 67.7344 18.7856 70.4395 22.1107 70.4395H56.068C59.394 70.4395 62.099 67.7336 62.099 64.4085V25.7158L46.7634 10.3795H32.459C32.0284 10.3795 31.679 10.03 31.679 9.59946C31.679 9.1689 32.0284 8.81946 32.459 8.81946H47.0856C47.2923 8.81946 47.4912 8.90136 47.637 9.048L63.4305 24.8414C63.5771 24.9881 63.659 25.1862 63.659 25.3929V64.4085C63.659 68.594 60.2535 71.9995 56.068 71.9995Z" fill="#1F212B"/>
<path d="M46.8889 9.98944V18.5585C46.8889 22.4258 50.0534 25.5894 53.9198 25.5894H63.2689" fill="#B747AC"/>
<path d="M63.269 25.9795H53.9207C49.828 25.9795 46.499 22.6504 46.499 18.5578V9.98949C46.499 9.77421 46.6737 9.59949 46.889 9.59949C47.1043 9.59949 47.279 9.77421 47.279 9.98949V18.5578C47.279 22.2199 50.2586 25.1995 53.9207 25.1995H63.269C63.4843 25.1995 63.659 25.3742 63.659 25.5895C63.659 25.8048 63.485 25.9795 63.269 25.9795ZM58.589 40.0195C58.3737 40.0195 58.199 39.8448 58.199 39.6295V37.2895C58.199 37.0742 58.3737 36.8995 58.589 36.8995C58.8043 36.8995 58.979 37.0742 58.979 37.2895V39.6295C58.979 39.8448 58.805 40.0195 58.589 40.0195ZM58.589 46.2595C58.3737 46.2595 58.199 46.0848 58.199 45.8695V41.1895C58.199 40.9742 58.3737 40.7995 58.589 40.7995C58.8043 40.7995 58.979 40.9742 58.979 41.1895V45.8695C58.979 46.0848 58.805 46.2595 58.589 46.2595ZM53.0057 67.3195H25.1722C21.8783 67.3195 19.199 64.6285 19.199 61.3221V20.2449C19.199 18.2567 20.1849 16.3987 21.8369 15.2755C22.0148 15.1539 22.2581 15.2014 22.379 15.3785C22.4999 15.5571 22.4539 15.7997 22.2761 15.9206C20.8378 16.8987 19.9798 18.5149 19.9798 20.2449V61.3221C19.9798 64.1987 22.3096 66.5395 25.173 66.5395H53.0073C55.8707 66.5395 58.2005 64.1987 58.2005 61.3221V47.4295C58.2005 47.2142 58.3753 47.0395 58.5905 47.0395C58.8058 47.0395 58.9805 47.2142 58.9805 47.4295V61.3221C58.979 64.6285 56.2997 67.3195 53.0057 67.3195Z" fill="#1F212B"/>
<path d="M31.0455 11.1595L30.9543 20.39C30.9543 22.1138 29.328 23.2495 27.8062 23.2495C26.2844 23.2495 24.5169 22.1271 24.5169 20.4033L24.5458 10.5909C24.5458 9.57139 25.7992 8.67907 26.7306 8.67907C27.6619 8.67907 28.5597 9.57529 28.5597 10.5948L28.576 19.0414C28.576 19.0414 28.5113 19.5616 27.7921 19.5445C27.3967 19.5351 26.899 19.2668 26.9997 18.8378V11.1603H26.3655L26.3491 18.7325C26.3491 19.8089 26.7703 20.2519 27.8116 20.2519C28.8529 20.2519 29.3397 19.695 29.3397 18.6186V10.6587C29.3397 8.88733 28.2789 7.92871 26.6596 7.92871C25.0403 7.92871 23.8797 8.91229 23.8797 10.6837L23.9046 20.1295C23.9046 22.5007 25.5606 23.9562 27.7797 23.9562C29.9988 23.9562 31.6797 22.6224 31.6797 20.2512V11.1595H31.0455ZM41.4289 40.7995H23.4889C23.2736 40.7995 23.0989 40.6248 23.0989 40.4095C23.0989 40.1942 23.2736 40.0195 23.4889 40.0195H41.4289C41.6442 40.0195 41.8189 40.1942 41.8189 40.4095C41.8189 40.6248 41.6449 40.7995 41.4289 40.7995ZM34.4089 46.2595H23.4889C23.2736 46.2595 23.0989 46.0848 23.0989 45.8695C23.0989 45.6542 23.2736 45.4795 23.4889 45.4795H34.4089C34.6242 45.4795 34.7989 45.6542 34.7989 45.8695C34.7989 46.0848 34.6249 46.2595 34.4089 46.2595ZM54.6889 46.2595H35.9689C35.7536 46.2595 35.5789 46.0848 35.5789 45.8695C35.5789 45.6542 35.7536 45.4795 35.9689 45.4795H54.6889C54.9042 45.4795 55.0789 45.6542 55.0789 45.8695C55.0789 46.0848 54.9049 46.2595 54.6889 46.2595ZM47.6689 51.7195H39.0889C38.8736 51.7195 38.6989 51.5448 38.6989 51.3295C38.6989 51.1142 38.8736 50.9395 39.0889 50.9395H47.6689C47.8842 50.9395 48.0589 51.1142 48.0589 51.3295C48.0589 51.5448 47.8849 51.7195 47.6689 51.7195ZM55.4689 51.7195H49.2289C49.0136 51.7195 48.8389 51.5448 48.8389 51.3295C48.8389 51.1142 49.0136 50.9395 49.2289 50.9395H55.4689C55.6842 50.9395 55.8589 51.1142 55.8589 51.3295C55.8589 51.5448 55.6849 51.7195 55.4689 51.7195ZM37.5289 51.7195H23.4889C23.2736 51.7195 23.0989 51.5448 23.0989 51.3295C23.0989 51.1142 23.2736 50.9395 23.4889 50.9395H37.5289C37.7442 50.9395 37.9189 51.1142 37.9189 51.3295C37.9189 51.5448 37.7449 51.7195 37.5289 51.7195ZM54.6889 57.1795H44.5489C44.3336 57.1795 44.1589 57.0048 44.1589 56.7895C44.1589 56.5742 44.3336 56.3995 44.5489 56.3995H54.6889C54.9042 56.3995 55.0789 56.5742 55.0789 56.7895C55.0789 57.0048 54.9049 57.1795 54.6889 57.1795ZM42.2089 57.1795H23.4889C23.2736 57.1795 23.0989 57.0048 23.0989 56.7895C23.0989 56.5742 23.2736 56.3995 23.4889 56.3995H42.2089C42.4242 56.3995 42.5989 56.5742 42.5989 56.7895C42.5989 57.0048 42.4249 57.1795 42.2089 57.1795Z" fill="#1F212B"/>
</svg>
