<svg width="47" height="47" viewBox="0 0 47 47" fill="none" xmlns="http://www.w3.org/2000/svg">
<g clip-path="url(#clip0_513_70)">
<rect width="47" height="47" rx="23.5" fill="white"/>
<path d="M28.4569 31.7247C27.7401 31.7247 26.7333 31.4655 25.2256 30.6231C23.3923 29.595 21.9741 28.6458 20.1507 26.8272C18.3926 25.0702 17.5371 23.9325 16.3397 21.7537C14.987 19.2935 15.2175 18.004 15.4753 17.4529C15.7823 16.7941 16.2354 16.4001 16.8211 16.009C17.1537 15.7911 17.5057 15.6043 17.8727 15.4509C17.9094 15.4352 17.9435 15.4201 17.974 15.4065C18.1558 15.3246 18.4312 15.2009 18.78 15.3331C19.0128 15.4205 19.2207 15.5993 19.546 15.9206C20.2132 16.5786 21.1249 18.044 21.4613 18.7637C21.687 19.2488 21.8364 19.5689 21.8368 19.928C21.8368 20.3484 21.6253 20.6727 21.3687 21.0227C21.3206 21.0883 21.2728 21.1512 21.2266 21.2121C20.9472 21.5793 20.8859 21.6854 20.9262 21.8749C21.0081 22.2557 21.6187 23.3891 22.6223 24.3904C23.6257 25.3918 24.7266 25.9639 25.1088 26.0454C25.3064 26.0876 25.4147 26.0237 25.7936 25.7344C25.848 25.6929 25.9038 25.6499 25.9622 25.6069C26.3536 25.3158 26.6628 25.1098 27.0733 25.1098H27.0755C27.4327 25.1098 27.7387 25.2648 28.2454 25.5203C28.9063 25.8537 30.4158 26.7537 31.0778 27.4216C31.3999 27.7462 31.5794 27.9533 31.6672 28.1857C31.7994 28.5356 31.6749 28.81 31.5938 28.9935C31.5801 29.0241 31.5651 29.0574 31.5493 29.0946C31.3947 29.4608 31.2068 29.8121 30.9879 30.1439C30.5976 30.7278 30.2021 31.1798 29.5419 31.4871C29.2029 31.6475 28.8319 31.7288 28.4569 31.7247Z" fill="#CECECE"/>
</g>
<defs>
<clipPath id="clip0_513_70">
<rect width="47" height="47" rx="23.5" fill="white"/>
</clipPath>
</defs>
</svg>
